<?xml version="1.0" standalone="no"?>
<!DOCTYPE svg PUBLIC "-//W3C//DTD SVG 1.1//EN" "http://www.w3.org/Graphics/SVG/1.1/DTD/svg11.dtd" >
<svg xmlns="http://www.w3.org/2000/svg">
<metadata>Generated by IcoMoon</metadata>
<defs>
<font id="icomoon" horiz-adv-x="1024">
<font-face units-per-em="1024" ascent="960" descent="-64" />
<missing-glyph horiz-adv-x="1024" />
<glyph unicode="&#x20;" horiz-adv-x="512" d="" />
<glyph unicode="&#xe900;" glyph-name="arrow" d="M331.604 9.143c-26.901 0-44.835 8.777-62.769 26.331-35.868 35.109-35.868 87.771 0 122.88l295.912 289.646-295.912 289.646c-35.868 35.109-35.868 87.771 0 122.88s89.671 35.109 125.54 0l421.449-412.526-421.449-412.526c-17.935-17.554-35.87-26.331-62.771-26.331z" />
<glyph unicode="&#xe901;" glyph-name="arrow-left" d="M660.564 809.412c22.149 0 36.918-7.228 51.688-21.685 29.539-28.913 29.539-72.282 0-101.195l-243.69-238.532 243.69-238.532c29.539-28.913 29.539-72.282 0-101.195s-73.842-28.913-103.382 0l-347.078 339.727 347.078 339.727c14.77 14.456 29.539 21.685 51.694 21.685z" />
<glyph unicode="&#xe902;" glyph-name="arrow-right" d="M363.438 86.588c-22.154 0-36.923 7.228-51.692 21.685-29.539 28.913-29.539 72.282 0 101.195l243.692 238.532-243.692 238.532c-29.539 28.913-29.539 72.282 0 101.195s73.846 28.913 103.384 0l347.075-339.727-347.075-339.727c-14.769-14.456-29.538-21.685-51.692-21.685z" />
<glyph unicode="&#xe903;" glyph-name="aumentar-fonte" d="M337.42 713.846l-209.42-531.69h74.588l65.444 166.151h222.090l65.444-166.151h74.588l-209.42 531.69h-83.315zM294.175 414.769l84.884 215.501 84.885-215.501h-169.77zM751.482 595.692h23.187c2.061 0 3.091-1.012 3.091-3.036v-267.159c0-2.024-1.030-3.036-3.091-3.036h-23.187c-2.061 0-3.091 1.012-3.091 3.036v267.159c0 2.024 1.030 3.036 3.091 3.036zM633.247 473.498h259.661c2.061 0 3.091-1.012 3.091-3.036v-22.769c0-2.024-1.030-3.036-3.091-3.036h-259.661c-2.061 0-3.091 1.012-3.091 3.036v22.769c0 2.024 1.030 3.036 3.091 3.036z" />
<glyph unicode="&#xe904;" glyph-name="busca" d="M932.696 105.329l-102.901 108.211c60.529 72.141 90.796 162.319 90.796 258.505 0 228.447-187.648 414.811-423.724 414.811s-423.724-186.364-423.724-414.811c0-228.443 187.649-414.808 423.724-414.808 90.8 0 175.543 30.058 242.128 78.153l108.957-108.211c12.105-12.025 24.214-18.037 42.372-18.037 18.161 0 30.267 6.012 42.372 18.037 12.109 12.021 18.161 24.046 18.161 42.079 0 18.037-6.053 30.062-18.161 36.070zM496.867 177.47c-169.49 0-302.66 132.261-302.66 294.576 0 162.318 133.17 294.577 302.66 294.577s302.661-132.258 302.661-294.577c0-162.315-133.171-294.576-302.661-294.576z" />
<glyph unicode="&#xe905;" glyph-name="calendario" d="M879.704 521.15h-739.564c-16.62 0-33.239 12.189-33.239 32.505 0 20.319 12.464 32.508 33.239 32.508h739.564c16.622 0 33.24-12.189 33.24-32.508 0-20.315-16.618-32.505-33.24-32.505zM696.891 362.668c-16.622 0-33.24 12.193-33.24 32.508 0 20.319 12.464 32.508 29.085 32.508 16.618 0 33.24-12.189 33.24-32.508 0-20.315-12.467-32.508-29.085-32.508zM509.923 362.668c-16.622 0-33.24 12.193-33.24 32.508 0 20.319 12.464 32.508 29.082 32.508 16.622 0 33.24-12.189 33.24-32.508 0-20.315-12.464-32.508-29.082-32.508zM327.108 362.668c-16.62 0-33.239 12.193-33.239 32.508 0 20.319 12.465 32.508 29.084 32.508s33.239-12.189 33.239-32.508c0-20.315-12.465-32.508-29.084-32.508zM696.891 208.26c-16.622 0-33.24 12.189-33.24 32.508 0 20.315 12.464 32.505 29.085 32.505 16.618 0 33.24-12.189 33.24-32.505 0-20.319-12.467-32.508-29.085-32.508zM509.923 208.26c-16.622 0-33.24 12.189-33.24 32.508 0 20.315 12.464 32.505 29.082 32.505 16.622 0 33.24-12.189 33.24-32.505 0-20.319-12.464-32.508-29.082-32.508zM327.108 208.26c-16.62 0-33.239 12.189-33.239 32.508 0 20.315 12.465 32.505 29.084 32.505s33.239-12.189 33.239-32.505c0-20.319-12.465-32.508-29.084-32.508zM676.114 691.81c-16.618 0-33.236 12.19-33.236 32.508v130.032c0 16.254 12.464 32.508 33.236 32.508 20.776 0 33.24-12.19 33.24-32.508v-134.095c0-16.254-12.464-28.444-33.24-28.444zM343.727 691.81c-16.62 0-33.239 12.19-33.239 28.444v134.095c0 16.254 12.464 32.508 33.239 32.508s29.082-16.254 29.082-32.508v-134.095c0-16.254-12.463-28.444-29.082-28.444zM684.427 9.143h-349.009c-141.266 0-228.517 85.332-228.517 223.492v365.714c0 134.095 87.252 219.428 228.517 219.428h353.163c70.634 0 128.801-20.317 170.35-60.952 37.394-36.571 58.167-93.46 58.167-158.476v-369.777c0-134.096-91.407-219.429-232.671-219.429zM335.418 760.888c-108.027 0-166.194-56.889-166.194-158.476v-365.714c0-105.651 58.168-162.538 166.194-162.538h353.163c108.025 0 166.195 56.887 166.195 158.475v369.777c0 48.762-12.467 89.397-41.549 117.841-29.085 28.444-70.634 40.635-124.646 40.635h-353.163z" />
<glyph unicode="&#xe906;" glyph-name="checkbox" d="M198.531 886.857c-69.151 0-125.388-56.236-125.388-125.388v-626.938c0-69.153 56.236-125.389 125.388-125.389h626.938c69.153 0 125.389 56.236 125.389 125.389v626.938c0 69.151-56.236 125.388-125.389 125.388h-626.938zM198.531 134.532v626.938h626.938l0.128-626.938h-627.066z" />
<glyph unicode="&#xe907;" glyph-name="checkbox-selected" d="M198.531 886.857c-69.151 0-125.388-56.236-125.388-125.388v-626.938c0-69.153 56.236-125.389 125.388-125.389h626.938c69.153 0 125.389 56.236 125.389 125.389v626.938c0 69.151-56.236 125.388-125.389 125.388h-626.938zM198.531 134.532v626.938h626.938l0.128-626.938h-627.066zM449.057 413.144l-81.254 79.682-87.77-89.651 169.525-165.95 294.597 291.588-88.148 89.151-206.95-204.819z" />
<glyph unicode="&#xe908;" glyph-name="contraste" d="M512.518 832c52.513 0 102.262-10.005 149.248-30.016 46.982-20.011 87.75-47.267 122.298-81.768s61.843-75.213 81.882-122.135c20.038-46.922 30.054-96.948 30.054-150.081s-10.016-102.814-30.054-149.043c-20.038-46.234-47.334-86.944-81.882-122.138s-75.315-62.79-122.298-82.803c-46.986-20.013-96.908-30.016-149.766-30.016s-102.435 10.003-148.729 30.016c-46.294 20.013-87.060 47.61-122.3 82.803s-62.877 75.904-82.915 122.138c-20.038 46.229-30.057 95.911-30.057 149.043s10.019 103.159 30.057 150.081c20.038 46.922 47.676 87.634 82.915 122.135s76.006 61.757 122.3 81.768c46.294 20.011 96.044 30.016 149.247 30.016zM512.518 710.9c0 7.59-2.419 13.8-7.255 18.63s-11.401 6.556-19.693 5.175c-36.621-3.45-70.823-13.11-102.607-28.981s-59.423-36.916-82.915-63.137c-23.492-26.221-41.803-55.547-54.931-87.978s-20.038-67.968-20.729-106.609c-0.691-38.641 6.219-73.833 20.729-105.574 14.51-31.744 32.82-61.414 54.931-89.011 22.111-27.603 49.749-48.301 82.915-62.106 33.165-13.798 67.368-23.802 102.607-30.016 7.601-0.691 14.165 1.382 19.693 6.214 5.528 4.826 7.946 10.694 7.255 17.594v525.8z" />
<glyph unicode="&#xe909;" glyph-name="diminuir" d="M337.42 713.846l-209.42-531.69h74.588l65.444 166.151h222.090l65.444-166.151h74.588l-209.42 531.69h-83.315zM294.175 414.769l84.884 215.501 84.885-215.501h-169.77zM893.114 448h-260.068c-1.589 0-2.89-1.399-2.89-3.109v-23.32c0-1.71 1.3-3.109 2.89-3.109h260.068c1.587 0 2.886 1.399 2.886 3.109v23.32c0 1.71-1.299 3.109-2.886 3.109z" />
<glyph unicode="&#xe90a;" glyph-name="download" d="M359.956 392.565l124.144-123.659c4.283-4.264 8.561-8.528 12.844-8.528 4.279-4.264 12.84-4.264 17.123-4.264 4.279 0 12.84 0 17.123 4.264 4.279 4.264 8.561 4.264 12.844 8.528l124.142 123.659c17.123 17.057 17.123 42.642 0 59.699s-42.807 17.057-59.93 0l-51.372-51.171v409.363c0 25.585-17.123 42.642-42.807 42.642s-42.811-17.057-42.811-42.642v-409.363l-51.368 51.171c-17.123 17.057-42.807 17.057-59.931 0s-17.123-42.642 0-59.699zM753.792 652.679h-38.528c-25.684 0-42.807-17.057-42.807-42.642s17.123-42.642 42.807-42.642h38.528c64.212 0 115.584-51.171 115.584-115.134v-208.944c0-63.963-51.372-115.134-115.584-115.134h-475.17c-64.212 0-115.582 51.171-115.582 115.134v208.944c0 63.963 51.37 115.134 115.582 115.134h38.527c25.685 0 42.808 17.057 42.808 42.642s-17.123 42.642-42.808 42.642h-42.808c-111.301 0-201.198-89.548-201.198-200.418v-208.944c0-110.87 89.897-200.415 201.198-200.415h475.172c111.301 0 201.198 89.545 201.198 200.415v208.944c4.279 110.87-85.617 200.418-196.919 200.418z" />
<glyph unicode="&#xe90b;" glyph-name="e-mail" d="M751.020 619.924c-11.754 0-27.429-3.952-35.266-11.856l-172.405-142.279c-15.675-11.856-35.266-11.856-50.94 0l-176.327 146.232c-23.51 15.809-54.857 11.856-70.531-7.905-15.673-23.712-15.673-51.378 7.837-71.138l176.326-142.281c23.512-19.76 54.857-31.616 86.206-31.616 31.345 0 62.691 11.856 86.203 31.616l172.409 142.281c19.591 15.806 23.508 47.426 7.837 71.138-7.837 7.905-19.591 15.809-31.349 15.809zM151.51 114.041c43.102-47.426 105.796-71.139 168.49-71.139h384c66.611 0 125.389 23.713 168.488 71.139 50.94 51.376 78.369 122.518 78.369 197.61v272.699c0 150.183-105.797 268.749-246.857 268.749h-384c-141.061 0-246.857-118.565-246.857-268.749v-272.699c0-75.092 27.429-146.235 78.367-197.61zM218.123 181.226c-27.429 31.62-47.021 79.045-47.021 130.425v272.699c0 98.805 66.612 169.945 148.898 169.945h384c86.203 0 148.897-71.139 148.897-169.945v-272.699c0-51.379-19.591-98.805-47.020-130.425-27.429-27.666-62.694-39.523-101.877-39.523h-384c-39.184 0-74.449 15.81-101.877 39.523z" />
<glyph unicode="&#xe90c;" glyph-name="externo" d="M574.694 886.857c-16.629 0-32.574-6.605-44.332-18.363s-18.363-27.704-18.363-44.332c0-16.627 6.605-32.574 18.363-44.331s27.703-18.363 44.332-18.363h162.125l-394.531-394.534c-5.988-5.782-10.764-12.701-14.050-20.348-3.286-7.651-5.015-15.876-5.087-24.199-0.072-8.327 1.514-16.581 4.666-24.287s7.808-14.705 13.694-20.59c5.887-5.888 12.886-10.544 20.591-13.696s15.959-4.736 24.286-4.667c8.324 0.073 16.549 1.803 24.199 5.091 7.647 3.284 14.566 8.060 20.348 14.047l394.533 394.534v-162.126c0-16.629 6.605-32.574 18.363-44.332s27.707-18.363 44.332-18.363c16.629 0 32.574 6.605 44.332 18.363s18.363 27.703 18.363 44.332v313.469c0 16.628-6.605 32.574-18.363 44.332s-27.703 18.363-44.332 18.363h-313.468zM198.531 761.469c-33.255 0-65.148-13.21-88.662-36.725s-36.725-55.408-36.725-88.662v-501.55c0-33.254 13.21-65.148 36.725-88.664s55.408-36.725 88.662-36.725h501.553c33.254 0 65.145 13.21 88.66 36.725s36.725 55.409 36.725 88.664v188.080c0 16.629-6.605 32.574-18.363 44.332s-27.703 18.363-44.332 18.363c-16.625 0-32.571-6.605-44.328-18.363s-18.363-27.703-18.363-44.332v-188.080h-501.553v501.55h188.081c16.629 0 32.574 6.605 44.332 18.363s18.363 27.704 18.363 44.331c0 16.628-6.605 32.574-18.363 44.332s-27.703 18.363-44.332 18.363h-188.081z" />
<glyph unicode="&#xe90d;" glyph-name="fechar" d="M106.133 852.957c13.322 13.331 31.388 20.82 50.225 20.82s36.903-7.489 50.225-20.82l304.974-305.28 304.973 305.28c6.554 6.792 14.391 12.209 23.057 15.936 8.67 3.727 17.993 5.688 27.422 5.771 9.434 0.082 18.79-1.717 27.52-5.293s16.661-8.856 23.33-15.533c6.673-6.676 11.947-14.616 15.518-23.356s5.372-18.103 5.286-27.545c-0.081-9.442-2.039-18.773-5.764-27.449-3.721-8.676-9.135-16.523-15.919-23.082l-304.973-305.281 304.973-305.28c12.941-13.41 20.1-31.373 19.938-50.018s-7.633-36.48-20.804-49.664c-13.171-13.188-30.989-20.663-49.613-20.826-18.628-0.162-36.574 7.006-49.971 19.959l-304.973 305.28-304.974-305.28c-13.398-12.954-31.343-20.122-49.969-19.959s-36.444 7.637-49.615 20.826c-13.171 13.184-20.643 31.019-20.804 49.664s6.999 36.608 19.939 50.018l304.973 305.28-304.973 305.281c-13.318 13.335-20.8 31.419-20.8 50.275s7.482 36.94 20.8 50.276v0z" />
<glyph unicode="&#xe90e;" glyph-name="info" d="M693.965 9.143h-368.211c-149.854 0-252.611 107.037-252.611 265.454v346.805c0 154.135 102.757 265.455 252.611 265.455h372.494c149.851 0 252.61-107.038 252.61-265.455v-351.084c-4.283-154.138-107.037-261.175-256.892-261.175zM325.753 796.945c-102.757 0-166.98-68.505-166.98-179.824v-351.085c0-111.32 64.223-179.825 166.98-179.825h372.494c102.755 0 166.978 68.506 166.978 179.825v355.367c0 111.32-64.223 175.543-166.978 175.543h-372.494zM509.857 231.786c-25.688 0-42.814 17.126-42.814 42.818v171.26c0 25.688 17.126 42.814 42.814 42.814 25.691 0 42.818-17.126 42.818-42.814v-171.26c0-25.691-21.409-42.818-42.818-42.818zM509.857 565.742c-25.688 0-42.814 17.126-42.814 42.816s17.126 42.816 42.814 42.816c25.691 0 42.818-17.126 42.818-42.816s-17.126-42.816-42.818-42.816z" />
<glyph unicode="&#xe90f;" glyph-name="mais" d="M512 960c16.974 0 33.252-6.743 45.255-18.745s18.745-28.281 18.745-45.255v-384h384c16.974 0 33.252-6.743 45.255-18.745s18.745-28.281 18.745-45.255c0-16.974-6.743-33.252-18.745-45.255s-28.281-18.745-45.255-18.745h-384v-384c0-16.974-6.743-33.252-18.745-45.255s-28.281-18.745-45.255-18.745c-16.974 0-33.252 6.743-45.255 18.745s-18.745 28.281-18.745 45.255v384h-384c-16.974 0-33.252 6.743-45.255 18.745s-18.745 28.281-18.745 45.255c0 16.974 6.743 33.252 18.745 45.255s28.281 18.745 45.255 18.745h384v384c0 16.974 6.743 33.252 18.745 45.255s28.281 18.745 45.255 18.745v0z" />
<glyph unicode="&#xe910;" glyph-name="menu" d="M192 832c-35.346 0-64-28.654-64-64s28.654-64 64-64h640c35.347 0 64 28.654 64 64s-28.653 64-64 64h-640zM128.042 447.995c0 35.346 28.654 64 64 64h640.003c35.341 0 64-28.654 64-64s-28.659-64-64-64h-640.003c-35.346 0-64 28.653-64 64zM128 128c0 35.347 28.654 64 64 64h640c35.347 0 64-28.653 64-64s-28.653-64-64-64h-640c-35.346 0-64 28.653-64 64z" />
<glyph unicode="&#xe911;" glyph-name="minus" d="M680.229 9.143h-336.457c-160.914 0-270.629 117.029-270.629 277.943v321.829c0 160.914 109.714 277.943 270.629 277.943h343.771c153.6 0 263.314-117.029 263.314-277.943v-321.829c0-160.914-109.714-277.943-270.629-277.943zM343.771 740.571c-80.457 0-124.343-51.2-124.343-131.657v-321.829c0-80.457 43.886-131.657 124.343-131.657h343.771c73.143 0 124.343 51.2 124.343 131.657v321.829c-7.314 80.457-51.2 131.657-131.657 131.657h-336.457zM643.657 374.857h-263.314c-43.886 0-73.143 29.257-73.143 73.143s29.257 73.143 73.143 73.143h270.629c43.886 0 73.143-29.257 73.143-73.143s-36.571-73.143-80.457-73.143z" />
<glyph unicode="&#xe912;" glyph-name="pdf" d="M950.857 594.286c0.004 4.888-1.064 9.727-3.141 14.229-2.081 4.502-5.124 8.574-8.956 11.974l-278.872 255.657c-0.23 0.21-0.475 0.388-0.709 0.59-0.699 0.624-1.423 1.225-2.169 1.801-0.329 0.247-0.684 0.457-1.017 0.695-0.699 0.494-1.393 0.992-2.125 1.445-0.278 0.169-0.578 0.315-0.867 0.48-0.816 0.485-1.646 0.942-2.494 1.372-0.201 0.091-0.413 0.173-0.618 0.27-0.955 0.457-1.927 0.878-2.918 1.262-0.135 0.055-0.278 0.091-0.417 0.142-1.068 0.4-2.15 0.757-3.251 1.070-0.135 0.037-0.285 0.060-0.421 0.096-1.104 0.304-2.224 0.563-3.35 0.777-0.344 0.060-0.699 0.087-1.039 0.142-0.936 0.146-1.872 0.302-2.831 0.389-1.324 0.122-2.655 0.183-3.986 0.183h-478.749c-21.153-0.022-41.433-7.735-56.39-21.447s-23.371-32.304-23.395-51.696v-402.286c0-9.699 4.203-19.003 11.684-25.86s17.628-10.712 28.208-10.712c10.58 0 20.727 3.855 28.208 10.712s11.684 16.161 11.684 25.86v402.286h438.856v-219.429c0-9.699 4.202-19.003 11.685-25.86s17.627-10.712 28.208-10.712h239.356v-146.286c0-9.699 4.202-19.003 11.685-25.86 7.479-6.857 17.627-10.712 28.208-10.712s20.729 3.855 28.208 10.712c7.483 6.857 11.685 16.161 11.685 25.86v182.126c0.004 0.245 0.040 0.483 0.040 0.731zM671.568 761.993l143.049-131.136h-143.049v131.136zM192.86 301.714h-79.785c-10.58 0-20.727-3.855-28.208-10.712s-11.684-16.161-11.684-25.86v-219.429c0-9.699 4.203-19.003 11.684-25.86s17.628-10.712 28.208-10.712c10.58 0 20.727 3.855 28.208 10.712s11.684 16.161 11.684 25.86v36.571h39.892c31.74 0 62.181 11.56 84.625 32.135s35.053 48.483 35.053 77.579c0 29.096-12.609 57.004-35.053 77.579s-52.884 32.135-84.625 32.135zM192.86 155.429h-39.892v73.143h39.892c10.58 0 20.727-3.855 28.208-10.712s11.684-16.161 11.684-25.86c0-9.699-4.203-19.003-11.684-25.86s-17.628-10.712-28.208-10.712zM492.054 301.714h-59.838c-10.58 0-20.729-3.855-28.208-10.712-7.483-6.857-11.685-16.161-11.685-25.86v-219.429c0-9.699 4.202-19.003 11.685-25.86 7.479-6.857 17.627-10.712 28.208-10.712h59.838c42.32 0 82.907 15.411 112.834 42.847 29.923 27.432 46.735 64.64 46.735 103.439s-16.812 76.006-46.735 103.439c-29.926 27.436-70.513 42.847-112.834 42.847zM492.054 82.286h-19.946v146.286h19.946c21.16 0 41.454-7.706 56.415-21.424 14.965-13.718 23.369-32.322 23.369-51.719s-8.404-38.001-23.369-51.719c-14.961-13.718-35.255-21.424-56.415-21.424zM950.817 265.143c0-9.699-4.202-19.003-11.685-25.86-7.479-6.857-17.627-10.712-28.208-10.712h-99.73v-54.857h79.784c10.58 0 20.725-3.855 28.208-10.712s11.685-16.161 11.685-25.86c0-9.699-4.202-19.003-11.685-25.86s-17.627-10.712-28.208-10.712h-79.784v-54.857c0-9.699-4.202-19.003-11.685-25.86s-17.627-10.712-28.208-10.712c-10.58 0-20.729 3.855-28.211 10.712-7.479 6.857-11.681 16.161-11.681 25.86v219.429c0 9.699 4.202 19.003 11.681 25.86 7.483 6.857 17.631 10.712 28.211 10.712h139.622c10.58 0 20.729-3.855 28.208-10.712 7.483-6.857 11.685-16.161 11.685-25.86z" />
<glyph unicode="&#xe913;" glyph-name="plus" d="M650.445 502.499h-80.823v80.315c0 34.42-23.091 57.367-57.732 57.367-34.637 0-57.728-22.947-57.728-57.367v-80.315h-80.823c-34.639 0-57.731-22.945-57.731-57.366s23.092-57.366 57.731-57.366h80.823v-80.315c0-34.421 23.091-57.366 57.728-57.366 34.64 0 57.732 22.945 57.732 57.366v80.315h80.823c34.637 0 57.728 22.945 57.728 57.366s-23.091 57.366-57.728 57.366zM690.853 886.857h-357.925c-155.871 0-259.785-108.997-259.785-269.625v-338.463c0-160.629 109.687-269.627 259.785-269.627h357.925c155.875 0 259.789 108.997 259.789 269.627v332.726c5.771 160.628-103.914 275.361-259.789 275.361zM835.178 278.769c0-97.525-51.957-154.891-138.551-154.891h-363.699c-92.368 0-144.325 57.366-144.325 154.891v332.726c0 97.524 57.73 154.891 144.325 154.891h357.925c92.368 0 144.325-57.367 144.325-154.891v-332.726z" />
<glyph unicode="&#xe914;" glyph-name="select" d="M512 9.143c-86.799 0-171.646 25.739-243.816 73.962-72.17 48.219-128.419 116.762-161.635 196.952s-41.907 168.43-24.974 253.561c16.933 85.129 58.73 163.326 120.106 224.701s139.572 103.172 224.701 120.106c85.131 16.933 173.371 8.242 253.561-24.974s148.732-89.465 196.952-161.635c48.223-72.17 73.962-157.017 73.962-243.816-0.132-116.352-46.413-227.899-128.684-310.173-82.275-82.271-193.821-128.552-310.173-128.684zM512 761.469c-83.138 0-162.869-33.026-221.656-91.813s-91.813-138.518-91.813-221.656c0-83.138 33.026-162.871 91.813-221.656 58.787-58.789 138.518-91.813 221.656-91.813s162.871 33.024 221.656 91.813c58.789 58.785 91.813 138.518 91.813 221.656s-33.024 162.869-91.813 221.656c-58.785 58.787-138.518 91.813-221.656 91.813z" />
<glyph unicode="&#xe915;" glyph-name="selected" d="M512 9.143c-86.799 0-171.646 25.739-243.816 73.962-72.17 48.219-128.419 116.762-161.635 196.952s-41.907 168.43-24.974 253.561c16.933 85.129 58.73 163.326 120.106 224.701s139.572 103.172 224.701 120.106c85.131 16.933 173.371 8.242 253.561-24.974s148.732-89.465 196.952-161.635c48.223-72.17 73.962-157.017 73.962-243.816-0.132-116.352-46.413-227.899-128.684-310.173-82.275-82.271-193.821-128.552-310.173-128.684zM512 761.469c-83.138 0-162.869-33.026-221.656-91.813s-91.813-138.518-91.813-221.656c0-83.138 33.026-162.871 91.813-221.656 58.787-58.789 138.518-91.813 221.656-91.813s162.871 33.024 221.656 91.813c58.789 58.785 91.813 138.518 91.813 221.656s-33.024 162.869-91.813 221.656c-58.785 58.787-138.518 91.813-221.656 91.813zM512 259.917c-49.883 0-97.723 19.818-132.992 55.088-35.274 35.273-55.089 83.112-55.089 132.996s19.815 97.723 55.089 132.992c35.269 35.274 83.109 55.089 132.992 55.089s97.723-19.815 132.996-55.089c35.269-35.269 55.088-83.109 55.088-132.992s-19.818-97.723-55.088-132.996c-35.273-35.269-83.112-55.088-132.996-55.088z" />
<glyph unicode="&#xe916;" glyph-name="telefone" d="M819.2 9.143h-43.886c-386.194 0-702.171 315.977-702.171 702.171v43.886c0 35.109 13.166 70.217 39.497 92.16 21.943 26.331 57.051 39.497 92.16 39.497h144.823c17.554 0 35.109-4.389 52.663-17.554 13.166-8.777 21.943-26.331 30.72-43.886l65.829-197.486c8.777-21.943 4.389-43.886-4.389-61.44s-21.943-35.109-43.886-43.886l-57.051-30.72c39.497-70.217 96.549-122.88 162.377-162.377l30.72 61.44c8.777 17.554 26.331 35.109 43.886 43.886s39.497 8.777 61.44 4.389l197.486-65.829c17.554-4.389 30.72-17.554 43.886-30.72 8.777-13.166 17.554-35.109 17.554-52.663v-149.211c0-35.109-13.166-70.217-39.497-92.16s-57.051-39.497-92.16-39.497zM204.8 799.086c-13.166 0-21.943-4.389-30.72-13.166s-13.166-17.554-13.166-30.72v-43.886c0-337.92 276.48-614.4 614.4-614.4h43.886c13.166 0 21.943 4.389 30.72 13.166s13.166 17.554 13.166 30.72v144.823l-197.486 65.829-48.274-100.937c-8.777-21.943-35.109-30.72-57.051-21.943-118.491 52.663-210.651 144.823-263.314 263.314-13.166 26.331-4.389 48.274 17.554 61.44l100.937 48.274-65.829 197.486h-144.823z" />
<glyph unicode="&#xe917;" glyph-name="value" d="M566.857 9.143v669.258l307.204-307.2 76.796 76.8-438.857 438.857-438.857-438.857 76.8-76.8 307.2 307.2v-669.258h109.714z" />
<glyph unicode="&#xe918;" glyph-name="video" d="M897.324 692.772c-28.822 16.758-70.001 8.379-94.709-12.569l-70.001-58.655c-12.354 96.361-98.827 171.775-193.536 163.395-127.653 0-284.129 0-288.247 0-53.531-4.19-98.827-25.138-131.77-62.844-32.942-33.517-49.413-79.603-45.296-125.688 0-310.031 0-314.222 0-318.41 8.236-96.362 86.474-167.585 181.184-167.585 4.118 0 8.236 0 12.353 0 107.062 0 284.13 0 288.248 0 49.412 0 94.709 25.136 127.649 58.653 28.826 29.327 41.179 67.035 45.297 108.932l70.001-58.657c16.472-12.566 37.061-20.948 57.651-20.948 12.354 0 28.826 4.191 41.176 8.382 32.944 16.757 53.533 50.275 53.533 83.789v305.844c0 46.085-20.59 79.602-53.533 96.361zM625.551 231.914c-16.472-20.948-45.297-33.518-70.001-33.518-8.236 0-177.068 0-288.248 0-53.531-4.187-102.945 37.709-107.063 87.984 0 12.57 0 192.72 0 314.221 0 25.137 8.236 50.275 24.707 67.034 12.353 20.948 41.178 33.517 65.885 33.517 4.118 0 16.471 0 41.178 0 57.649 0 168.828 0 251.187 0 57.648 4.19 102.945-37.707 107.063-87.982 0-12.569 0-192.722 0-310.032 0-29.327-8.236-54.466-24.708-71.223zM868.502 298.949c0-4.191-4.118-8.382-4.118-8.382-4.118 0-8.236 0-12.354 0l-119.417 100.553c0 50.275 0 92.171 0 121.498l119.417 100.551c4.118 4.19 8.236 4.19 12.354 4.19s4.118-4.189 4.118-8.379v-310.031z" />
<glyph unicode="&#xe919;" glyph-name="volume" d="M470.203 110.416c-62.694 0-121.207 46.468-167.183 84.484-16.718 16.9-45.975 38.020-58.514 38.020s-20.898 0-29.257 0c-33.437 0-62.694 4.224-96.131 29.572-45.975 38.016-45.975 114.055-45.975 173.195v16.896c0 59.14 0 135.175 45.975 173.195 33.437 33.794 62.694 33.794 96.131 33.794 8.359 0 20.898 0 29.257 0 12.539 4.224 37.616 25.346 58.514 42.243 62.694 50.691 142.106 114.056 225.697 67.588l4.18-4.224c62.694-46.467 62.694-135.177 62.694-316.821s-4.18-270.354-66.875-321.046l-4.18-4.224c-16.717-8.448-37.614-12.672-54.334-12.672zM470.203 701.815c-33.437 0-75.231-38.019-112.848-67.588-41.796-29.57-71.053-54.917-104.489-54.917-12.539-4.224-25.078-4.224-33.437-4.224-33.437 0-37.616 0-50.155-8.448-16.719-12.672-12.539-80.26-12.539-105.607v-16.896c0-29.572 0-97.159 12.539-105.607 12.539-16.896 16.718-16.896 50.155-16.896 8.359 0 20.898 0 33.437 0 33.437-4.224 62.694-25.348 100.31-59.14 41.796-33.796 96.131-76.039 129.568-63.367 29.257 25.348 29.257 101.383 29.257 249.234s-4.18 223.887-29.257 249.232c-4.18 4.224-8.36 4.224-12.54 4.224zM829.648 148.421c-8.357 0-16.717 4.224-25.077 8.448-20.897 12.672-25.077 38.016-8.36 59.14 96.132 143.623 96.132 325.27 0 464.67-16.717 21.121-8.357 46.467 8.36 59.14 20.897 12.673 45.978 8.448 58.514-12.673 117.029-168.971 117.029-392.858 0-561.829-8.36-8.448-20.897-16.896-33.437-16.896zM725.16 249.812c-8.36 0-12.54 0-20.897 4.224-20.901 12.672-25.077 38.020-16.72 59.14 45.978 84.484 45.978 185.867 0 270.354-12.537 21.121-4.18 46.466 16.72 59.139 20.897 12.673 45.974 4.224 58.514-16.897 62.694-109.83 62.694-245.009 0-354.84-8.36-12.672-25.077-21.12-37.617-21.12z" />
<glyph unicode="&#xe91a;" d="M819.191 755.198h-614.4v-614.398h614.4v614.398z" />
<glyph unicode="&#xe91b;" d="M844.796 755.198h-25.6l-307.2-242.583-307.2 242.583h-25.6c-42.394 0-76.8-34.406-76.8-76.8v-460.798c0-42.394 34.406-76.8 76.8-76.8h25.6v478.923l307.2-236.286 307.2 236.337v-478.974h25.6c42.394 0 76.8 34.406 76.8 76.8v460.798c0 42.394-34.406 76.8-76.8 76.8z" />
<glyph unicode="&#xe91c;" d="M179.198 652.797h716.8v-435.2h-716.8v435.2z" />
<glyph unicode="&#xe91d;" d="M896 686.932h-358.4c-14.131 0-25.6-11.894-25.6-26.548s11.469-26.548 25.6-26.548h283.802l-157.286-126.845-112.794 74.386-27.443-44.813 128-84.425c4.147-2.761 8.96-4.139 13.722-4.139 5.53 0 11.11 1.856 15.718 5.572l189.082 152.547v-343.959h-332.8c-14.131 0-25.6-11.891-25.6-26.547s11.469-26.547 25.6-26.547h358.4c14.131 0 25.6 11.891 25.6 26.547v424.77c0 14.655-11.469 26.548-25.6 26.548z" />
<glyph unicode="&#xe91e;" d="M551.923 851.282c-5.811 5.188-13.611 7.427-20.949 5.789l-407.781-81.916c-12.081-2.403-20.797-13.653-20.797-26.814v-600.718c0-13.107 8.716-24.414 20.797-26.816l407.781-81.916c1.527-0.329 3.106-0.491 4.689-0.491 5.914 0 11.669 2.185 16.26 6.281 5.862 5.188 9.225 12.941 9.225 21.022v764.554c0 8.137-3.362 15.837-9.225 21.025z" />
<glyph unicode="&#xe91f;" d="M332.791 238.66c-70.554 0-128 75.733-128 168.794s57.446 168.791 128 168.791c70.554 0 128-75.731 128-168.791s-57.446-168.794-128-168.794zM332.791 519.983c-42.342 0-76.8-50.47-76.8-112.529s34.458-112.529 76.8-112.529c42.342 0 76.8 50.47 76.8 112.529s-34.458 112.529-76.8 112.529z" />
</font>
</defs>
</svg>
