<svg width="20" height="20" viewBox="0 0 20 20" fill="none" xmlns="http://www.w3.org/2000/svg">
<path d="M8.47508 0.00903416C8.75413 -0.0342136 9.03446 0.079924 9.20509 0.306129C9.3757 0.532558 9.40915 0.835073 9.29221 1.09368C8.7111 2.37901 8.56593 3.82113 8.87864 5.19762C9.1914 6.57411 9.94509 7.80946 11.0236 8.71341C12.1022 9.61737 13.4462 10.1397 14.8489 10.2009C16.2517 10.2621 17.636 9.85847 18.7884 9.0518L18.8775 8.99742C19.0941 8.88624 19.3527 8.88443 19.5735 8.99641C19.8257 9.12443 19.9882 9.38109 19.9961 9.66512C20.0335 11.0087 19.8026 12.3465 19.3171 13.5989C18.8317 14.8511 18.1018 15.993 17.1702 16.9565C16.2384 17.9202 15.1238 18.6864 13.8926 19.2094C12.6614 19.7324 11.3378 20.0001 10.0012 20C7.48171 20.0008 5.05458 19.0466 3.20576 17.3251C1.35683 15.6036 0.222285 13.2431 0.0293489 10.7165C-0.163539 8.19003 0.599546 5.68328 2.16532 3.69805C3.7312 1.71286 5.9849 0.39507 8.47508 0.00903416ZM7.4116 1.848C5.82729 2.3598 4.41749 3.33223 3.37099 4.65882C2.04598 6.33863 1.40031 8.45982 1.56348 10.5977C1.7267 12.7356 2.6867 14.7334 4.25121 16.1901C5.81567 17.6466 7.8693 18.4549 10.0012 18.4541C11.1321 18.4542 12.252 18.2269 13.2938 17.7844C14.3355 17.3419 15.2782 16.6933 16.0666 15.8779C16.855 15.0625 17.4734 14.0966 17.8841 13.0369C18.1329 12.3952 18.3007 11.7266 18.3888 11.0469C17.2631 11.5567 16.0288 11.8012 14.7818 11.7468C13.0428 11.6708 11.3765 11.0225 10.0393 9.90179C8.70185 8.78087 7.76737 7.24893 7.37956 5.54205C7.10159 4.3185 7.11599 3.05343 7.4116 1.848Z" fill="white"/>
</svg>
