<svg width="22" height="22" viewBox="0 0 22 22" fill="none" xmlns="http://www.w3.org/2000/svg">
<path d="M21.2513 20.1929C21.66 20.6015 21.66 21.2145 21.2513 21.5824C21.0878 21.7867 20.8426 21.8684 20.5974 21.8684C20.3114 21.8684 20.0662 21.7867 19.8618 21.5824L14.3856 16.1062C12.9144 17.2913 11.0754 17.9452 9.11378 17.9452C4.45493 17.9452 0.654297 14.1445 0.654297 9.44483C0.654297 4.78599 4.41407 0.94448 9.11378 0.94448C13.7726 0.94448 17.6141 4.78599 17.6141 9.44483C17.6141 11.4473 16.9603 13.2863 15.7751 14.7167L21.2513 20.1929ZM2.61592 9.44483C2.61592 13.082 5.51748 15.9836 9.15465 15.9836C12.751 15.9836 15.6934 13.082 15.6934 9.44483C15.6934 5.84853 12.751 2.9061 9.15465 2.9061C5.51748 2.9061 2.61592 5.84853 2.61592 9.44483Z" fill="white"/>
</svg>
