<svg width="28" height="28" viewBox="0 0 28 28" fill="none" xmlns="http://www.w3.org/2000/svg">
<path d="M20.5357 9.29895C20.2143 9.29895 19.7857 9.40701 19.5714 9.62315L14.8572 13.5136C14.4286 13.8378 13.8929 13.8378 13.4643 13.5136L8.64287 9.51508C8.00001 9.08281 7.14287 9.19088 6.7143 9.73122C6.28573 10.3796 6.28573 11.1361 6.92858 11.6764L11.75 15.5669C12.3929 16.1072 13.25 16.4314 14.1072 16.4314C14.9643 16.4314 15.8214 16.1072 16.4643 15.5669L21.1786 11.6764C21.7143 11.2442 21.8214 10.3796 21.3929 9.73122C21.1786 9.51508 20.8572 9.29895 20.5357 9.29895Z" fill="#4D4D4D"/>
<path d="M4.14286 23.1317C5.32143 24.4285 7.03571 25.0769 8.75 25.0769H19.25C21.0714 25.0769 22.6786 24.4285 23.8571 23.1317C25.25 21.7269 26 19.7816 26 17.7283V10.2717C26 6.16512 23.1071 2.9231 19.25 2.9231H8.75C4.89286 2.9231 2 6.16512 2 10.2717V17.7283C2 19.7816 2.75 21.7269 4.14286 23.1317ZM5.96429 21.2946C5.21429 20.43 4.67857 19.1332 4.67857 17.7283V10.2717C4.67857 7.57 6.5 5.62478 8.75 5.62478H19.25C21.6071 5.62478 23.3214 7.57 23.3214 10.2717V17.7283C23.3214 19.1332 22.7857 20.43 22.0357 21.2946C21.2857 22.0511 20.3214 22.3753 19.25 22.3753H8.75C7.67857 22.3753 6.71429 21.943 5.96429 21.2946Z" fill="#4D4D4D"/>
</svg>
