<svg width="28" height="28" viewBox="0 0 28 28" fill="none" xmlns="http://www.w3.org/2000/svg">
<path d="M22.4 26H21.2C10.64 26 2 17.36 2 6.8V5.6C2 4.64 2.36 3.68 3.08 3.08C3.68 2.36 4.64 2 5.6 2H9.56C10.04 2 10.52 2.12 11 2.48C11.36 2.72 11.6 3.2 11.84 3.68L13.64 9.08C13.88 9.68 13.76 10.28 13.52 10.76C13.28 11.24 12.92 11.72 12.32 11.96L10.76 12.8C11.84 14.72 13.4 16.16 15.2 17.24L16.04 15.56C16.28 15.08 16.76 14.6 17.24 14.36C17.72 14.12 18.32 14.12 18.92 14.24L24.32 16.04C24.8 16.16 25.16 16.52 25.52 16.88C25.76 17.24 26 17.84 26 18.32V22.4C26 23.36 25.64 24.32 24.92 24.92C24.2 25.52 23.36 26 22.4 26ZM5.6 4.4C5.24 4.4 5 4.52 4.76 4.76C4.52 5 4.4 5.24 4.4 5.6V6.8C4.4 16.04 11.96 23.6 21.2 23.6H22.4C22.76 23.6 23 23.48 23.24 23.24C23.48 23 23.6 22.76 23.6 22.4V18.44L18.2 16.64L16.88 19.4C16.64 20 15.92 20.24 15.32 20C12.08 18.56 9.56 16.04 8.12 12.8C7.76 12.08 8 11.48 8.6 11.12L11.36 9.8L9.56 4.4H5.6Z" fill="#4D4D4D"/>
</svg>
