<svg width="20" height="20" viewBox="0 0 20 20" fill="none" xmlns="http://www.w3.org/2000/svg">
<g clip-path="url(#clip0_12803_2250)">
<path d="M10 0C10.221 0 10.433 0.0877974 10.5893 0.244078C10.7455 0.400358 10.8333 0.61232 10.8333 0.833333V4.16667C10.8333 4.38768 10.7455 4.59964 10.5893 4.75592C10.433 4.9122 10.221 5 10 5C9.77899 5 9.56702 4.9122 9.41074 4.75592C9.25446 4.59964 9.16667 4.38768 9.16667 4.16667V0.833333C9.16667 0.61232 9.25446 0.400358 9.41074 0.244078C9.56702 0.0877974 9.77899 0 10 0ZM4.1075 2.92917C3.95033 2.77737 3.73983 2.69337 3.52133 2.69527C3.30283 2.69717 3.09382 2.78481 2.93932 2.93932C2.78481 3.09382 2.69717 3.30283 2.69527 3.52133C2.69337 3.73983 2.77737 3.95033 2.92917 4.1075L5.28583 6.46417C5.443 6.61597 5.6535 6.69996 5.872 6.69806C6.0905 6.69616 6.29951 6.60852 6.45402 6.45402C6.60852 6.29951 6.69616 6.0905 6.69806 5.872C6.69996 5.6535 6.61597 5.443 6.46417 5.28583L4.1075 2.92917ZM0.833333 9.16667C0.61232 9.16667 0.400358 9.25446 0.244078 9.41074C0.0877974 9.56702 0 9.77899 0 10C0 10.221 0.0877974 10.433 0.244078 10.5893C0.400358 10.7455 0.61232 10.8333 0.833333 10.8333H4.16667C4.38768 10.8333 4.59964 10.7455 4.75592 10.5893C4.9122 10.433 5 10.221 5 10C5 9.77899 4.9122 9.56702 4.75592 9.41074C4.59964 9.25446 4.38768 9.16667 4.16667 9.16667H0.833333ZM15 10C15 9.77899 15.0878 9.56702 15.2441 9.41074C15.4004 9.25446 15.6123 9.16667 15.8333 9.16667H19.1667C19.3877 9.16667 19.5996 9.25446 19.7559 9.41074C19.9122 9.56702 20 9.77899 20 10C20 10.221 19.9122 10.433 19.7559 10.5893C19.5996 10.7455 19.3877 10.8333 19.1667 10.8333H15.8333C15.6123 10.8333 15.4004 10.7455 15.2441 10.5893C15.0878 10.433 15 10.221 15 10ZM14.7142 13.5358C14.557 13.384 14.3465 13.3 14.128 13.3019C13.9095 13.3038 13.7005 13.3915 13.546 13.546C13.3915 13.7005 13.3038 13.9095 13.3019 14.128C13.3 14.3465 13.384 14.557 13.5358 14.7142L15.8925 17.0708C15.9694 17.1504 16.0613 17.2139 16.163 17.2576C16.2647 17.3013 16.374 17.3242 16.4847 17.3252C16.5953 17.3262 16.705 17.3051 16.8075 17.2632C16.9099 17.2213 17.0029 17.1594 17.0812 17.0812C17.1594 17.0029 17.2213 16.9099 17.2632 16.8075C17.3051 16.705 17.3262 16.5953 17.3252 16.4847C17.3242 16.374 17.3013 16.2647 17.2576 16.163C17.2139 16.0613 17.1504 15.9694 17.0708 15.8925L14.7142 13.5358ZM6.46417 14.7142C6.54376 14.6373 6.60724 14.5453 6.65092 14.4437C6.69459 14.342 6.71758 14.2327 6.71854 14.122C6.7195 14.0114 6.69842 13.9016 6.65652 13.7992C6.61462 13.6968 6.55274 13.6037 6.4745 13.5255C6.39625 13.4473 6.30321 13.3854 6.2008 13.3435C6.09838 13.3016 5.98865 13.2805 5.878 13.2815C5.76735 13.2824 5.658 13.3054 5.55633 13.3491C5.45466 13.3928 5.36271 13.4562 5.28583 13.5358L2.92917 15.8917C2.84957 15.9685 2.78609 16.0605 2.74242 16.1622C2.69874 16.2638 2.67575 16.3732 2.67479 16.4838C2.67383 16.5945 2.69491 16.7042 2.73682 16.8066C2.77872 16.909 2.84059 17.0021 2.91884 17.0803C2.99708 17.1586 3.09012 17.2204 3.19254 17.2624C3.29495 17.3043 3.40468 17.3253 3.51533 17.3244C3.62598 17.3234 3.73533 17.3004 3.837 17.2568C3.93867 17.2131 4.03063 17.1496 4.1075 17.07L6.46417 14.7142ZM17.0708 4.1075C17.2226 3.95033 17.3066 3.73983 17.3047 3.52133C17.3028 3.30283 17.2152 3.09382 17.0607 2.93932C16.9062 2.78481 16.6972 2.69717 16.4787 2.69527C16.2602 2.69337 16.0497 2.77737 15.8925 2.92917L13.5358 5.28583C13.4562 5.36271 13.3928 5.45466 13.3491 5.55633C13.3054 5.658 13.2824 5.76735 13.2815 5.878C13.2805 5.98865 13.3016 6.09838 13.3435 6.2008C13.3854 6.30321 13.4473 6.39625 13.5255 6.4745C13.6037 6.55274 13.6968 6.61462 13.7992 6.65652C13.9016 6.69842 14.0114 6.7195 14.122 6.71854C14.2327 6.71758 14.342 6.69459 14.4437 6.65092C14.5453 6.60724 14.6373 6.54376 14.7142 6.46417L17.0708 4.1075ZM10.8333 15.8333C10.8333 15.6123 10.7455 15.4004 10.5893 15.2441C10.433 15.0878 10.221 15 10 15C9.77899 15 9.56702 15.0878 9.41074 15.2441C9.25446 15.4004 9.16667 15.6123 9.16667 15.8333V19.1667C9.16667 19.3877 9.25446 19.5996 9.41074 19.7559C9.56702 19.9122 9.77899 20 10 20C10.221 20 10.433 19.9122 10.5893 19.7559C10.7455 19.5996 10.8333 19.3877 10.8333 19.1667V15.8333ZM10 5.83333C8.89493 5.83333 7.83512 6.27232 7.05372 7.05372C6.27232 7.83512 5.83333 8.89493 5.83333 10C5.83333 11.1051 6.27232 12.1649 7.05372 12.9463C7.83512 13.7277 8.89493 14.1667 10 14.1667C11.1051 14.1667 12.1649 13.7277 12.9463 12.9463C13.7277 12.1649 14.1667 11.1051 14.1667 10C14.1667 8.89493 13.7277 7.83512 12.9463 7.05372C12.1649 6.27232 11.1051 5.83333 10 5.83333Z" fill="white"/>
</g>
<defs>
<clipPath id="clip0_12803_2250">
<rect width="20" height="20" fill="white"/>
</clipPath>
</defs>
</svg>
