<svg width="724" height="274" viewBox="0 0 724 274" fill="none" xmlns="http://www.w3.org/2000/svg">
<path d="M224.404 161.1H227.404V158.1H224.404V161.1ZM183.804 161.1H180.804V164.1H183.804V161.1ZM183.804 6.39998H186.804V3.39998H183.804V6.39998ZM125.704 6.39998V3.39998H124.192L123.292 4.61597L125.704 6.39998ZM0.404099 175.8L-2.0078 174.016L-2.5959 174.811V175.8H0.404099ZM0.404099 213.6H-2.5959V216.6H0.404099V213.6ZM122.554 213.6H125.554V210.6H122.554V213.6ZM122.554 267.5H119.554V270.5H122.554V267.5ZM183.804 267.5V270.5H186.804V267.5H183.804ZM183.804 213.6V210.6H180.804V213.6H183.804ZM224.404 213.6V216.6H227.404V213.6H224.404ZM66.2041 161.1H63.2041V164.1H66.2041V161.1ZM66.2041 160.4L63.7831 158.628L63.2041 159.42V160.4H66.2041ZM122.554 83.4H125.554V74.2208L120.133 81.6283L122.554 83.4ZM122.554 161.1V164.1H125.554V161.1H122.554ZM224.404 158.1H183.804V164.1H224.404V158.1ZM186.804 161.1V6.39998H180.804V161.1H186.804ZM183.804 3.39998H125.704V9.39998H183.804V3.39998ZM123.292 4.61597L-2.0078 174.016L2.81601 177.584L128.116 8.184L123.292 4.61597ZM-2.5959 175.8V213.6H3.4041V175.8H-2.5959ZM0.404099 216.6H122.554V210.6H0.404099V216.6ZM119.554 213.6V267.5H125.554V213.6H119.554ZM122.554 270.5H183.804V264.5H122.554V270.5ZM186.804 267.5V213.6H180.804V267.5H186.804ZM183.804 216.6H224.404V210.6H183.804V216.6ZM227.404 213.6V161.1H221.404V213.6H227.404ZM69.2041 161.1V160.4H63.2041V161.1H69.2041ZM68.6251 162.172L124.975 85.1717L120.133 81.6283L63.7831 158.628L68.6251 162.172ZM119.554 83.4V161.1H125.554V83.4H119.554ZM122.554 158.1H66.2041V164.1H122.554V158.1ZM363.064 -2.90002C299.343 -2.90002 249.464 51.7997 249.464 136.95H255.464C255.464 54.1003 303.586 3.09998 363.064 3.09998V-2.90002ZM249.464 136.95C249.464 221.745 299.338 276.8 363.064 276.8V270.8C303.591 270.8 255.464 219.455 255.464 136.95H249.464ZM363.064 276.8C426.424 276.8 477.014 221.765 477.014 136.95H471.014C471.014 219.435 422.205 270.8 363.064 270.8V276.8ZM477.014 136.95C477.014 51.7799 426.419 -2.90002 363.064 -2.90002V3.09998C422.209 3.09998 471.014 54.12 471.014 136.95H477.014ZM363.064 64C374.446 64 385.223 70.2135 393.28 82.507C401.362 94.8375 406.614 113.205 406.614 136.95H412.614C412.614 112.395 407.192 92.7875 398.298 79.218C389.381 65.6115 376.883 58 363.064 58V64ZM406.614 136.95C406.614 160.516 401.363 178.887 393.278 191.266C385.213 203.613 374.432 209.9 363.064 209.9V215.9C376.896 215.9 389.391 208.187 398.301 194.547C407.19 180.938 412.614 161.334 412.614 136.95H406.614ZM363.064 209.9C351.73 209.9 341.399 203.649 333.764 191.326C326.096 178.949 321.264 160.561 321.264 136.95H315.264C315.264 161.289 320.232 180.876 328.664 194.486C337.13 208.151 349.199 215.9 363.064 215.9V209.9ZM321.264 136.95C321.264 113.16 326.098 94.7755 333.762 82.4463C341.388 70.1778 351.716 64 363.064 64V58C349.213 58 337.14 65.6471 328.666 79.2787C320.231 92.8495 315.264 112.44 315.264 136.95H321.264ZM723.086 161.1H726.086V158.1H723.086V161.1ZM682.486 161.1H679.486V164.1H682.486V161.1ZM682.486 6.39998H685.486V3.39998H682.486V6.39998ZM624.386 6.39998V3.39998H622.873L621.974 4.61597L624.386 6.39998ZM499.086 175.8L496.674 174.016L496.086 174.811V175.8H499.086ZM499.086 213.6H496.086V216.6H499.086V213.6ZM621.236 213.6H624.236V210.6H621.236V213.6ZM621.236 267.5H618.236V270.5H621.236V267.5ZM682.486 267.5V270.5H685.486V267.5H682.486ZM682.486 213.6V210.6H679.486V213.6H682.486ZM723.086 213.6V216.6H726.086V213.6H723.086ZM564.886 161.1H561.886V164.1H564.886V161.1ZM564.886 160.4L562.465 158.628L561.886 159.42V160.4H564.886ZM621.236 83.4H624.236V74.2208L618.815 81.6283L621.236 83.4ZM621.236 161.1V164.1H624.236V161.1H621.236ZM723.086 158.1H682.486V164.1H723.086V158.1ZM685.486 161.1V6.39998H679.486V161.1H685.486ZM682.486 3.39998H624.386V9.39998H682.486V3.39998ZM621.974 4.61597L496.674 174.016L501.498 177.584L626.798 8.184L621.974 4.61597ZM496.086 175.8V213.6H502.086V175.8H496.086ZM499.086 216.6H621.236V210.6H499.086V216.6ZM618.236 213.6V267.5H624.236V213.6H618.236ZM621.236 270.5H682.486V264.5H621.236V270.5ZM685.486 267.5V213.6H679.486V267.5H685.486ZM682.486 216.6H723.086V210.6H682.486V216.6ZM726.086 213.6V161.1H720.086V213.6H726.086ZM567.886 161.1V160.4H561.886V161.1H567.886ZM567.307 162.172L623.657 85.1717L618.815 81.6283L562.465 158.628L567.307 162.172ZM618.236 83.4V161.1H624.236V83.4H618.236ZM621.236 158.1H564.886V164.1H621.236V158.1Z" fill="#F9EBF1"/>
</svg>
